#!OML:ASF E:\Mandelcareful walks\Project 1\Capture day 1\Session 1\Subject1.ASF
:FULLY-SPECIFIED
:DEGREES
145
root -20.9012 15.793 1.09625 178.566 85.5546 156.138
lowerback 8.16712 7.89926 2.64814
upperback 4.74912 10.7731 -1.5153
thorax 1.19797 5.52355 -3.6918
lowerneck -30.8607 1.54698 -1.37726
upperneck 24.5858 5.03491 -6.11321
head 13.6136 1.19221 -1.18306
rclavicle -6.99722e-014 5.24792e-014
rhumerus -22.5918 15.5884 -84.1015
rradius 77.9812
rwrist -23.8156
rhand -12.5973 -16.7501
rfingers 7.12502
rthumb 13.4813 -46.2937
lclavicle -6.99722e-014 5.24792e-014
lhumerus -58.491 -22.3488 82.0673
lradius 53.8307
lwrist 28.3624
lhand -16.6696 -12.9381
lfingers 7.12502
lthumb 9.55412 16.8253
rfemur 19.2354 -2.9722 15.2955
rtibia 1.27222e-014
rfoot -6.28466 -32.4197
rtoes -0.087384
lfemur -56.4769 10.4123 -13.0196
ltibia 58.1613
lfoot -16.8367 -2.92282
ltoes -23.5666
146
root -20.3662 15.7178 1.04101 184.589 84.5577 162.164
lowerback 7.36733 8.10566 1.98483
upperback 4.63543 10.9937 -1.74682
thorax 1.45442 5.62221 -3.47227
lowerneck -30.947 0.951448 -2.10975
upperneck 24.9862 3.87989 -4.12656
head 13.6737 0.891533 -0.509778
rclavicle -1.12115e-013 -2.70347e-014
rhumerus -23.5891 15.4987 -84.5835
rradius 77.6037
rwrist -23.1724
rhand -13.7774 -14.2744
rfingers 7.12502
rthumb 12.3437 -43.89
lclavicle -1.12115e-013 -2.70347e-014
lhumerus -56.8225 -24.0323 80.8396
lradius 55.1024
lwrist 28.3123
lhand -17.4626 -11.4281
lfingers 7.12502
lthumb 8.78894 18.3689
rfemur 20.8298 -2.2216 16.3614
rtibia -5.725e-014
rfoot -3.28748 -34.3636
rtoes 2.67659
lfemur -55.6469 11.2626 -13.2988
ltibia 59.6122
lfoot -15.9224 -1.65582
ltoes -29.6141
147
root -19.8512 15.611 0.981135 186.661 83.4862 164.512
lowerback 7.12803 7.95921 1.30856
upperback 4.71546 10.7741 -2.0598
thorax 1.58803 5.50889 -3.38262
lowerneck -31.6218 0.284932 -3.05065
upperneck 25.4723 2.72007 -2.04615
head 13.9239 0.580475 0.241497
rclavicle -9.30312e-014 -4.77083e-015
rhumerus -24.039 16.138 -85.4188
rradius 76.3673
rwrist -24.1308
rhand -12.7164 -17.1476
rfingers 7.12502
rthumb 13.3666 -46.6989
lclavicle -9.30312e-014 -4.77083e-015
lhumerus -54.531 -25.2324 79.3072
lradius 56.1151
lwrist 27.9224
lhand -18.5524 -11.8963
lfingers 7.12502
lthumb 7.73719 17.9422
rfemur 17.3335 -1.55623 17.3589
rtibia 10.099
rfoot -2.95899 -34.3284
rtoes 5.34095
lfemur -54.4303 11.2872 -13.1978
ltibia 61.6024
lfoot -16.2333 -2.83202
ltoes -21.7667
148
root -19.3478 15.4813 0.924475 185.408 82.343 163.77
lowerback 7.41763 7.73646 0.197884
upperback 4.65078 10.4206 -2.37074
thorax 1.19888 5.31102 -3.15474
lowerneck -30.9966 -0.646991 -3.70533
upperneck 25.0223 1.13274 -0.499346
head 13.5971 0.0740913 0.644194
rclavicle 7.15625e-015 -2.14687e-014
rhumerus -24.9363 16.6743 -86.4562
rradius 74.7924
rwrist -25.3644
rhand -9.77553 -19.317
rfingers 7.12502
rthumb 16.1998 -48.6601
lclavicle 7.15625e-015 -2.14687e-014
lhumerus -52.2123 -26.2813 77.5392
lradius 57.9332
lwrist 28.3634
lhand -18.4134 -10.5207
lfingers 7.12502
lthumb 7.87135 19.3128
rfemur 13.2843 -4.36006 16.6503
rtibia 21.7461
rfoot -0.255842 -29.2611
rtoes 11.7726
lfemur -52.7586 10.477 -13.0038
ltibia 63.4338
lfoot -18.539 -3.97284
ltoes -20.8212
149
root -18.8565 15.3201 0.871937 180.936 81.2403 160.063
lowerback 8.05676 7.4708 -1.45046
upperback 4.77227 9.97409 -2.69806
thorax 0.734043 5.06543 -2.68333
lowerneck -30.6709 -1.77476 -4.96345
upperneck 24.9176 -0.582677 1.60358
head 13.5304 -0.476163 1.34682
rclavicle -4.13472e-014 8.50798e-014
rhumerus -26.0718 17.1179 -87.5043
rradius 72.9502
rwrist -26.3996
rhand -15.075 -14.7946
rfingers 7.12502
rthumb 11.0924 -44.4815
lclavicle -4.13472e-014 8.50798e-014
lhumerus -49.4617 -28.2639 76.0012
lradius 59.2933
lwrist 28.8599
lhand -20.0453 -10.1571
lfingers 7.12502
lthumb 6.29607 19.7293
rfemur 10.0878 -7.10654 15.2392
rtibia 32.2106
rfoot 3.43873 -22.4776
rtoes 22.082
lfemur -50.7254 9.35629 -13.2284
ltibia 64.8831
lfoot -20.4332 -4.27434
ltoes -18.5978
150
root -18.3721 15.1592 0.830735 175.286 80.1262 155.249
lowerback 9.10429 6.99795 -3.40991
upperback 4.93553 9.19443 -3.01445
thorax 0.0626914 4.65717 -2.04604
lowerneck -30.1746 -2.85071 -6.18754
upperneck 24.4945 -2.14753 3.39209
head 13.3619 -1.00704 1.9453
rclavicle 9.50191e-014 -5.56597e-015
rhumerus -26.8638 17.4892 -88.6016
rradius 70.7474
rwrist -26.4817
rhand -14.1978 -17.2905
rfingers 7.12502
rthumb 11.9384 -46.93
lclavicle 9.50191e-014 -5.56597e-015
lhumerus -46.5303 -28.7245 74.4861
lradius 61.1987
lwrist 28.8529
lhand -22.7364 -8.6378
lfingers 7.12502
lthumb 3.69764 21.3099
rfemur 6.61441 -9.80108 13.3615
rtibia 42.9224
rfoot 3.55061 -14.4714
rtoes 20.5016
lfemur -48.3003 8.1342 -13.7755
ltibia 65.7413
lfoot -22.3234 -4.161
ltoes -18.1405
151
root -17.9018 14.9988 0.795828 168.973 78.9894 149.764
lowerback 10.2134 6.60218 -5.78436
upperback 5.11844 8.43642 -3.22113
thorax -0.64116 4.26212 -1.05134
lowerneck -29.2861 -3.89429 -7.14973
upperneck 23.7973 -3.6258 4.61224
head 13.0436 -1.56867 2.28693
rclavicle 5.56597e-015 1.27222e-014
rhumerus -27.6383 17.7779 -89.3298
rradius 67.9089
rwrist -25.6526
rhand -13.9196 -17.9676
rfingers 7.12502
rthumb 12.2067 -47.5914
lclavicle 5.56597e-015 1.27222e-014
lhumerus -43.4153 -28.6538 73.3287
lradius 63.0388
lwrist 28.4124
lhand -23.9373 -10.1963
lfingers 7.12502
lthumb 2.5379 19.7683
rfemur 2.93127 -12.3953 11.0668
rtibia 53.7871
rfoot 2.77829 -8.49884
rtoes 13.5052
lfemur -45.598 6.82474 -14.6708
ltibia 66.0663
lfoot -24.2766 -3.60585
ltoes -19.0414
152
root -17.404 14.8975 0.76386 160.465 78.1525 142.249
lowerback 11.7241 6.31057 -8.62753
upperback 5.21544 7.66291 -3.47192
thorax -1.6282 3.87795 0.129909
lowerneck -28.3673 -4.67443 -7.84819
upperneck 23.2834 -4.71855 5.39469
head 12.7844 -2.01003 2.4922
rclavicle 1.82882e-014 2.14687e-014
rhumerus -29.7785 16.8953 -90.0296
rradius 66.4539
rwrist -22.9066
rhand -13.6159 -18.3019
rfingers 7.12502
rthumb 12.4994 -47.9081
lclavicle 1.82882e-014 2.14687e-014
lhumerus -40.1137 -28.1829 72.4367
lradius 63.9369
lwrist 27.8713
lhand -25.9037 -10.3251
lfingers 7.12502
lthumb 0.638777 19.6537
rfemur -1.73086 -15.2442 7.94909
rtibia 64.8309
rfoot 3.30123 -7.38928
rtoes 6.9575
lfemur -41.8033 5.79823 -16.1276
ltibia 65.6364
lfoot -26.4793 -2.62788
ltoes -19.5807
153
root -16.9268 14.7874 0.726334 153.527 77.3464 136.176
lowerback 13.146 5.93141 -11.3193
upperback 5.23962 6.69744 -3.43182
thorax -2.56153 3.41644 1.61452
lowerneck -27.3152 -5.26905 -8.14792
upperneck 22.6395 -5.42285 5.14605
head 12.3875 -2.3987 2.30738
rclavicle -9.56154e-014 7.03698e-014
rhumerus -31.5325 16.1514 -90.2981
rradius 64.2211
rwrist -19.522
rhand -14.1022 -19.1348
rfingers 7.12502
rthumb 12.0305 -48.769
lclavicle -9.56154e-014 7.03698e-014
lhumerus -37.0168 -27.4785 72.2054
lradius 65.3892
lwrist 26.5805
lhand -27.8667 -8.9745
lfingers 7.12502
lthumb -1.25714 21.0015
rfemur -6.57678 -17.6214 4.66279
rtibia 75.4682
rfoot 0.908375 -7.7901
rtoes 8.90947
lfemur -38.0117 4.70985 -17.4241
ltibia 64.8156
lfoot -28.5549 -1.4281
ltoes -19.5964
154
root -16.4682 14.6743 0.687784 150.375 77.2168 133.434
lowerback 14.0822 5.42762 -12.7602
upperback 5.02224 5.68634 -3.28495
thorax -3.30897 2.9482 2.63449
lowerneck -26.6498 -5.53599 -8.64843
upperneck 22.3867 -5.68365 5.29084
head 12.2073 -2.54882 2.39912
rclavicle -3.97569e-016 -4.05521e-014
rhumerus -33.6687 15.0992 -90.3089
rradius 62.0082
rwrist -17.012
rhand -15.0477 -19.1403
rfingers 7.12502
rthumb 11.1187 -48.8258
lclavicle -3.97569e-016 -4.05521e-014
lhumerus -33.9256 -26.4222 71.9227
lradius 66.7455
lwrist 24.9162
lhand -29.2977 -11.9389
lfingers 7.12502
lthumb -2.63923 18.0245
rfemur -12.884 -19.7318 2.64253
rtibia 85.3907
rfoot -2.29994 -8.50128
rtoes 9.00772
lfemur -34.8245 3.92654 -17.7178
ltibia 63.7104
lfoot -30.2566 -0.0824633
ltoes -20.3203
155
root -15.9796 14.6258 0.652929 148.383 77.6504 131.705
lowerback 14.6691 4.86578 -13.2456
upperback 4.78469 4.75484 -3.26714
thorax -3.78171 2.51882 3.04754
lowerneck -26.5836 -5.61344 -8.54582
upperneck 22.7479 -5.85877 5.32386
head 12.3489 -2.61239 2.36697
rclavicle -4.6118e-014 5.1684e-014
rhumerus -35.5822 13.3661 -89.8785
rradius 60.1567
rwrist -16.4359
rhand -14.5389 -19.7929
rfingers 7.12502
rthumb 11.6094 -49.4513
lclavicle -4.6118e-014 5.1684e-014
lhumerus -30.5595 -25.2302 71.2393
lradius 68.283
lwrist 23.5603
lhand -28.2896 -11.1627
lfingers 7.12502
lthumb -1.66561 18.8105
rfemur -19.8999 -22.069 1.45621
rtibia 93.6146
rfoot -4.86722 -8.66736
rtoes 9.81876
lfemur -31.335 3.46991 -17.5011
ltibia 61.9658
lfoot -31.5543 1.3181
ltoes -22.3409
156
root -15.462 14.621 0.633189 145.632 78.0948 129.283
lowerback 15.1487 4.07819 -13.7052
upperback 4.56346 3.54629 -3.07315
thorax -4.12863 1.94877 3.71882
lowerneck -26.7416 -5.44589 -9.06554
upperneck 23.2083 -5.36662 5.20261
head 12.5352 -2.4571 2.5022
rclavicle -5.92875e-014 4.55714e-014
rhumerus -37.9892 13.0436 -89.2586
rradius 58.5754
rwrist -16.3811
rhand -15.1589 -21.1259
rfingers 7.12502
rthumb 11.0115 -50.817
lclavicle -5.92875e-014 4.55714e-014
lhumerus -28.3097 -23.2663 71.2623
lradius 70.7093
lwrist 21.4582
lhand -29.6818 -12.1651
lfingers 7.12502
lthumb -3.0102 17.7934
rfemur -27.2663 -23.9014 0.821093
rtibia 99.5636
rfoot -6.24157 -8.17727
rtoes 11.7695
lfemur -27.2982 3.03121 -17.3595
ltibia 59.6842
lfoot -32.3339 2.60479
ltoes -24.1945
157
root -14.888 14.7023 0.636973 144.13 78.6085 128.098
lowerback 15.5182 3.34964 -13.6089
upperback 4.29733 2.50394 -2.92959
thorax -4.44994 1.45952 4.0145
lowerneck -26.8346 -4.9116 -8.28123
upperneck 23.4533 -4.68088 4.35995
head 12.5448 -2.19919 2.17992
rclavicle 1.19519e-014 4.65156e-014
rhumerus -40.5976 12.1364 -88.0926
rradius 57.9426
rwrist -19.3446
rhand -13.356 -23.6152
rfingers 7.12502
rthumb 12.75 -53.2059
lclavicle 1.19519e-014 4.65156e-014
lhumerus -26.6912 -22.5383 71.4657
lradius 74.0028
lwrist 21.4182
lhand -32.3234 -15.0526
lfingers 7.12502
lthumb -5.56098 14.8544
rfemur -34.5475 -25.1401 2.09076
rtibia 102.241
rfoot -6.67036 -8.63051
rtoes 4.14078
lfemur -22.7429 2.51537 -16.8157
ltibia 56.6844
lfoot -32.5141 3.28783
ltoes -24.9232
